<svg xmlns="http://www.w3.org/2000/svg" viewBox="0 0 27 54"><defs><style>.cls-1{fill:#fff}</style></defs><title>ic_scroll</title><g id="Layer_2" data-name="Layer 2"><g id="Layer_1-2" data-name="Layer 1"><path class="cls-1" d="M9.75 40.43v-3A7.54 7.54 0 0 1 3 30V10.5A7.52 7.52 0 0 1 10.5 3h6a7.52 7.52 0 0 1 7.5 7.5V30a7.49 7.49 0 0 1-6.75 7.43v3A10.48 10.48 0 0 0 27 30V10.5A10.53 10.53 0 0 0 16.5 0h-6A10.53 10.53 0 0 0 0 10.5V30a10.43 10.43 0 0 0 9.75 10.43z"/><path class="cls-1" d="M13.5 15.75a1.51 1.51 0 0 0 1.5-1.5v-4.5a1.5 1.5 0 0 0-3 0v4.5a1.51 1.51 0 0 0 1.5 1.5zM12 37.5v11.4l-1.2-1.2a1.45 1.45 0 0 0-2.1 0 1.45 1.45 0 0 0 0 2.1l3.75 3.75c.07.07.15.15.23.15l.07.07c.07 0 .07.07.15.07s.08 0 .15.07.07 0 .15.07h.6c.07 0 .07 0 .15-.07s.08 0 .15-.07.07-.07.15-.07a.07.07 0 0 0 .07-.07c.07-.07.15-.15.23-.15l3.75-3.75a1.5 1.5 0 0 0-1-2.55 1.48 1.48 0 0 0-1.05.45L15 48.9V33a1.5 1.5 0 0 0-3 0z"/></g></g></svg>