<svg xmlns="http://www.w3.org/2000/svg" width="101.328" height="98.98" viewBox="0 0 94.994831 92.793611"><path d="M29.908 91.013C20.968 87.515 9.307 77.47 6.93 71.222c-2.064-5.43.512-10.01 6.819-12.125 3.04-1.02 3.25-.941 3.25 1.208 0 3.24 5.149 9.96 10.736 14.015 5.223 3.79 13.976 6.732 17.382 5.842 2.065-.54 2.154-.326 1.596 3.833-1.105 8.24-7.19 10.78-16.806 7.018zm21.26-.416c-1.283-1.374-2.571-4.28-2.863-6.46l-.532-3.961h3.911c4.433 0 12.078-3.091 17.08-6.906C73.232 69.86 78 63.17 78 60.305c0-2.15.21-2.228 3.25-1.208 4.367 1.464 6.516 3.465 7.235 6.736.923 4.202-.97 7.742-7.752 14.498-7.043 7.017-15.541 11.659-22.558 12.322-4.01.379-5.006.087-7.007-2.056zM38.552 77.191C29.332 74.463 19 65.041 19 59.36c0-2.598 2.651-3.991 4.567-2.401 1.572 1.304.857 3.708-1.23 4.137-1.157.238-.821 1.232 1.49 4.416 3.273 4.51 7.677 7.599 14.033 9.841 3.97 1.402 4.14 1.379 4.14-.563 0-1.526.552-1.946 2.24-1.706 2.802.4 3.488 3.368 1.07 4.629-1.213.632-3.441.46-6.758-.52zm11.13.554c-1.943-1.087-2.172-2.952-.56-4.564C50.674 71.63 53 72.723 53 75.006c0 1.851.1 1.851 4.984-.005a30.85 30.85 0 0 0 13.814-10.493c1.911-2.582 2.038-3.16.75-3.428-1.669-.349-2.131-3.698-.638-4.621 1.697-1.05 4.09.648 4.09 2.9 0 3.164-5.104 9.831-10.221 13.352-5.429 3.735-13.761 6.34-16.096 5.034zM39.265 62.917c-2.887-1.755-3.852-3.84-4.868-10.514-.168-1.1-.59-2.962-.938-4.137-.348-1.176-.143-2.44.455-2.81 1.365-.843 1.442-7.553.087-7.553-1.964 0-.958-2.78 1.25-3.454C39.173 33.251 62 32.544 62 33.62c0 .543-3.713 1.28-8.25 1.638-13.148 1.036-14.194 1.505-14.561 6.533l-.311 4.256 11.061-.584c12.13-.64 15.546.867 4.311 1.903-3.713.342-8.94.877-11.617 1.19l-4.867.567.532 3.967c.644 4.8 3.146 7.813 6.489 7.813 2.576 0 8.157-2.936 11.857-6.237 3.606-3.217 3.736-.144.14 3.297-6.332 6.059-12.73 7.867-17.52 4.954zM3.052 55.109C.41 52.467 0 51.338 0 46.709 0 36.593 5.4 22.41 11.62 16.19c3.694-3.693 8.832-3.138 12.992 1.404l3.381 3.691-2.768 1.164c-3.068 1.29-6.97 6.697-9.542 13.223-1.963 4.982-2.285 17.228-.5 19.013 1.632 1.632.883 2.11-4.46 2.841-4.22.579-4.883.37-7.671-2.418zm78.198 2.088c-2.424-.467-2.932-1.754-1.132-2.867.739-.457.967-3.45.671-8.81-.344-6.245-1.055-9.27-3.083-13.117-3.45-6.546-5.681-9.22-8.566-10.268l-2.36-.857 3.478-3.688c2.73-2.893 4.236-3.687 7-3.687 1.936 0 4.456.787 5.598 1.75 3.692 3.109 8.985 13.255 10.585 20.29 2.339 10.283 2.07 15.199-1.03 18.883-2.598 3.088-4.9 3.577-11.161 2.371zm-64.643-3.876c-1.058-2.758-.657-10.934.77-15.674 1.498-4.98 6.981-13.284 9.378-14.203C28.48 22.782 31 24.548 31 26.418c0 1.744-2.98 2.746-4.475 1.506-1.592-1.321-3.808 1.105-6.435 7.043-2.447 5.532-3.266 15.578-1.235 15.15 1.951-.41 4.12 1.685 3.479 3.359-.741 1.93-4.97 1.816-5.727-.155zm56.06.155c-.63-1.639 1.78-4.033 3.184-3.165 2.727 1.685 1.696-10.46-1.407-16.583-2.664-5.257-4.459-6.86-6.975-6.228-2.832.71-4.19-1.304-2.214-3.28 1.212-1.213 1.86-1.262 3.46-.264 2.855 1.784 7.968 9.807 9.207 14.447 1.171 4.391 1.425 12.431.471 14.918-.756 1.97-4.986 2.085-5.727.155zM31.7 24.271c-2.016-2.016-.466-4.584 3.944-6.535 9.815-4.342 28.993-1.351 28.178 4.393-.473 3.333-4.317 3.132-4.34-.226-.02-3.07-4.477-4.887-11.983-4.887-7.486 0-11.962 1.819-11.983 4.869-.017 2.408-2.34 3.861-3.816 2.386zm-4.548-6.9c-2.982-3.791-2.88-9.437.223-12.352 7.124-6.692 33.124-6.692 40.248 0 3.087 2.9 3.205 8.56.256 12.31-2.1 2.669-2.137 2.676-3.952.727-2.716-2.915-8.55-4.535-16.452-4.568-7.508-.032-15.817 2.414-17.319 5.098-.707 1.265-1.214 1.06-3.004-1.216z" fill="#fff"/></svg>